<?xml version="1.0" encoding="utf-8"?>
<!-- Generator: Adobe Illustrator 16.0.0, SVG Export Plug-In . SVG Version: 6.00 Build 0)  -->
<!DOCTYPE svg PUBLIC "-//W3C//DTD SVG 1.1//EN" "http://www.w3.org/Graphics/SVG/1.1/DTD/svg11.dtd">
<svg version="1.1" id="Layer_1" xmlns="http://www.w3.org/2000/svg" xmlns:xlink="http://www.w3.org/1999/xlink" x="0px" y="0px"
	 width="150px" height="70px" viewBox="0 0 150 70" enable-background="new 0 0 150 70" xml:space="preserve">
<g>
	<g>
		<g>
			<polygon fill="#DB0011" points="145,34.922 137.547,27.5 137.547,42.375 			"/>
			<polygon fill="#DB0011" points="130.095,34.922 137.547,27.5 122.643,27.5 			"/>
			<polygon fill="#DB0011" points="115.189,34.922 122.643,42.375 122.643,27.5 			"/>
			<polygon fill="#DB0011" points="130.095,34.922 122.643,42.375 137.547,42.375 			"/>
		</g>
		<g>
			<g>
				<path fill="#DB0011" d="M112.054,21.228h-6.304h-0.31h-1.087c-1.397,0-1.739,0.994-1.739,0.994l-1.491,3.571h-0.029
					l-0.374-4.596H98.36c-1.118,0-1.584,1.025-1.584,1.025l-1.77,3.54h-0.031v-4.595h-1.584c-1.056,0-1.272,0.589-1.336,0.9
					c-0.31-0.589-1.148-0.9-2.638-0.9h-3.759c-1.211,0-1.334,0.931-1.334,0.931l-1.367,6.428h5.31c1.553,0,2.049-0.156,2.608-0.559
					c0.374-0.28,0.684-0.745,0.808-1.335c0.248-1.273-0.621-1.77-1.614-1.832v-0.031c0.9-0.217,1.677-0.621,1.986-1.459l0.125,5.186
					h2.546c1.46,0,1.987-1.335,1.987-1.335l1.553-3.105h0.031l0.373,4.472h2.266c1.646,0,2.205-1.46,2.205-1.46l1.988-4.534
					l-1.242,5.994h1.365c1.739,0,1.988-1.429,1.988-1.429l0.278-1.304h1.957c1.489,0,1.707-1.148,1.707-1.148l0.094-0.373h-3.416
					l0.31-1.521h2.144c1.46,0,1.678-1.118,1.678-1.118L112.054,21.228z M86.934,24.178l0.341-1.615h0.9
					c0.963,0,1.118,0.279,0.993,0.807c-0.093,0.497-0.434,0.808-1.335,0.808H86.934z M86.28,27.252l0.372-1.77h0.901
					c1.056,0,1.367,0.279,1.242,0.87c-0.125,0.621-0.559,0.9-1.614,0.9H86.28z"/>
				<g>
					<g>
						<path d="M57.713,25.451h-3.167v3.136h-1.584v-7.328h1.584v3.012h3.167v-3.012h1.584v7.328h-1.584V25.451z"/>
						<path d="M63.146,28.712c-1.583,0-2.888-0.621-2.919-2.391h1.585c0.03,0.776,0.465,1.242,1.334,1.242
							c0.652,0,1.367-0.311,1.367-1.056c0-0.558-0.497-0.745-1.305-0.993l-0.527-0.155c-1.149-0.342-2.298-0.776-2.298-2.111
							c0-1.646,1.521-2.174,2.919-2.174c1.428,0,2.67,0.497,2.67,2.111H64.39c-0.062-0.684-0.436-1.056-1.212-1.056
							c-0.59,0-1.18,0.311-1.18,0.962c0,0.528,0.497,0.714,1.521,1.024l0.621,0.187c1.273,0.403,2.05,0.838,2.05,2.049
							C66.19,28.06,64.575,28.712,63.146,28.712z"/>
						<path d="M67.091,21.228h2.546c0.808,0,1.118,0.031,1.429,0.093c0.9,0.217,1.553,0.776,1.553,1.77
							c0,0.932-0.591,1.429-1.46,1.646c0.994,0.186,1.739,0.683,1.739,1.77c0,1.677-1.646,2.049-2.919,2.049h-2.888V21.228z
							 M69.637,24.303c0.715,0,1.397-0.156,1.397-0.994c0-0.746-0.683-0.963-1.305-0.963h-1.117v1.957H69.637z M69.792,27.469
							c0.745,0,1.459-0.186,1.459-1.056c0-0.869-0.62-1.086-1.366-1.086h-1.272v2.142H69.792z"/>
						<path d="M77.06,28.712c-2.361,0-3.417-1.521-3.417-3.757c0-2.205,1.18-3.851,3.51-3.851c1.458,0,2.888,0.652,2.918,2.298
							h-1.646c-0.093-0.745-0.56-1.118-1.272-1.118c-1.429,0-1.864,1.553-1.864,2.733c0,1.18,0.436,2.515,1.801,2.515
							c0.715,0,1.243-0.373,1.366-1.118h1.646C79.915,28.06,78.58,28.712,77.06,28.712z"/>
					</g>
				</g>
			</g>
			<g>
				<path d="M59.949,31.879h1.801l1.304,5.557h0.031l1.18-5.557h1.521l-1.895,7.389h-1.77l-1.335-5.65h-0.031l-1.428,5.65h-1.802
					l-1.801-7.389h1.646l1.148,5.557h0.031L59.949,31.879z"/>
				<path d="M68.395,39.425c-1.677,0-2.671-1.119-2.671-2.733s0.994-2.732,2.671-2.732s2.671,1.118,2.671,2.732
					C71.097,38.306,70.071,39.425,68.395,39.425z M68.395,38.399c0.932,0,1.087-0.868,1.087-1.707c0-0.838-0.155-1.707-1.087-1.707
					s-1.087,0.869-1.087,1.707C67.308,37.531,67.463,38.399,68.395,38.399z"/>
				<path d="M73.271,34.146l0.03,0.932h0.031c0.342-0.808,0.993-1.024,1.739-0.994v1.366h-0.652
					c-0.249,0.031-0.59,0.154-0.745,0.373c-0.155,0.279-0.187,0.558-0.218,0.901v2.544h-1.521v-4.129
					c0-0.217-0.031-0.651-0.062-1.023h1.397V34.146z"/>
				<path d="M77.493,31.879v7.389h-1.554v-7.389H77.493z"/>
				<path d="M82.369,31.879h1.521v6.365c0,0.342,0.031,0.684,0.062,1.023h-1.553c-0.029-0.247-0.029-0.495-0.029-0.712h-0.032
					c-0.342,0.59-0.901,0.869-1.583,0.869c-1.522,0-2.206-1.398-2.206-2.733c0-1.397,0.809-2.732,2.423-2.732
					c0.529,0,1.087,0.31,1.366,0.746h0.032V31.879z M81.25,38.399c0.839,0,1.119-0.992,1.119-1.707c0-0.714-0.28-1.707-1.119-1.707
					c-0.993,0-1.117,0.9-1.117,1.707C80.133,37.5,80.287,38.399,81.25,38.399z"/>
				<path d="M86.157,31.879h5.991v1.242h-2.204V39.3h-1.583v-6.179h-2.204V31.879z"/>
				<path d="M94.292,39.425c-1.677,0-2.67-1.119-2.67-2.733s0.993-2.732,2.67-2.732c1.678,0,2.671,1.118,2.671,2.732
					S95.97,39.425,94.292,39.425z M94.292,38.399c0.932,0,1.087-0.868,1.087-1.707c0-0.838-0.155-1.707-1.087-1.707
					c-0.931,0-1.086,0.869-1.086,1.707C93.206,37.531,93.329,38.399,94.292,38.399z"/>
				<path d="M101.217,38.649c-0.342,0.465-0.807,0.776-1.583,0.776c-0.497,0-1.492-0.404-1.678-1.148
					c-0.094-0.312-0.094-0.653-0.094-0.809v-3.353h1.554v3.073c0,0.559,0.155,1.181,0.932,1.181c0.496,0,0.899-0.436,0.932-1.181
					v-3.073h1.553v4.222c0,0.312,0.029,0.621,0.062,0.931h-1.521L101.217,38.649z"/>
				<path d="M105.409,34.146l0.031,0.932h0.029c0.343-0.808,0.994-1.024,1.739-0.994v1.366h-0.651
					c-0.249,0.031-0.591,0.154-0.745,0.373c-0.155,0.279-0.186,0.558-0.218,0.901v2.544h-1.521v-4.129
					c0-0.217-0.032-0.651-0.062-1.023h1.397V34.146z"/>
			</g>
		</g>
	</g>
	<g>
		<g>
			<path fill="#DB0011" d="M23.152,20.017L23.152,20.017c-0.186,0.062-0.403,0.187-0.683,0.311
				c-1.242-1.708-4.845-4.751-4.845-4.751c-4.409,1.957-6.955,4.845-6.955,4.845c3.727,0.931,7.391,2.701,7.391,2.701
				c0.403-0.31,0.776-0.622,1.117-0.869c0.187,0.124,1.118,0.745,2.329,1.645c0.435-0.497,1.677-1.583,3.229-2.267
				c-0.031-0.062-0.311-0.652-1.118-1.77C23.432,19.893,23.277,19.955,23.152,20.017L23.152,20.017z"/>
		</g>
		<g>
			<path fill="#DB0011" d="M19.364,27.314c-2.143-0.59-3.727-0.745-3.727-0.745c-0.093,0.155-0.217,0.372-0.342,0.59
				c-0.217,0.373-0.465,0.745-0.435,0.745c0,0-3.322-0.217-8.942,0.808c0,0-1.553,4.502-0.621,9.999c0,0,3.943-3.136,8.912-5.155
				c0,0-0.094-0.559-0.062-1.49c2.64-0.745,4.409-0.962,4.596-0.994C18.649,29.985,18.898,28.495,19.364,27.314z"/>
		</g>
		<g>
			<path fill="#DB0011" d="M19.582,35.109c-0.031,0.03-2.268,1.211-3.882,2.639l0.279,0.529c0.124,0.217,0.249,0.434,0.403,0.651
				c-0.435,0.435-3.508,3.416-6.086,7.732c0,0,0.279,0.34,0.839,0.838c0.217,0.186,0.466,0.404,0.745,0.65l-0.808,1.803
				c4.472,4.502,8.633,5.371,8.633,5.371l0.217-3.229c-1.18-0.217-1.925-0.467-1.925-0.467s0.372-3.818,2.64-9.066
				c0,0-0.467-0.154-1.242-0.652c0.03-0.061,1.521-2.545,2.328-3.631C20.823,37.313,20.017,36.195,19.582,35.109z"/>
		</g>
		<g>
			<path fill="#DB0011" d="M35.139,48.771c-0.435,0.342-0.901,0.65-1.366,0.93c-0.062-0.092-1.832-2.947-3.105-6.955
				c0,0-0.403,0.156-1.148,0.344c-0.062-0.25-0.279-1.461-0.373-1.958c-1.087,0.062-2.95-0.279-3.727-0.621
				c-0.031,0.062-0.496,1.77-0.62,2.981l0,0c0,0,0.093,0,0.248,0.031c0.124,0,0.217,0.031,0.311,0.031c0,0,0.403,0.031,0.59,0.031
				c-0.031,0.217-0.373,3.912,0.559,8.414c0,0,0.373-0.062,0.528-0.092c0.062,0,0.124-0.031,0.186-0.031
				c0.404-0.062,0.839-0.156,1.025-0.186c0.559,1.924,1.305,4.16,1.305,4.16c4.595-0.59,8.445-3.447,8.445-3.447
				C36.908,51.287,35.139,48.771,35.139,48.771z"/>
		</g>
		<g>
			<path fill="#DB0011" d="M47.218,33.742c-0.124-3.477-1.46-6.676-1.46-6.676c-3.012,1.397-4.999,1.987-4.999,1.987
				c0.124,0.342,0.248,0.746,0.342,1.149l-1.956,0.342c0.062,0.9-0.155,2.887-0.652,4.004c1.149,0.312,3.198,0.623,3.198,0.623
				c0-0.219,0-0.437,0-0.623c0-0.247,0-0.465-0.031-0.683C43.988,34.083,47.218,33.742,47.218,33.742z"/>
		</g>
		<g>
			<path fill="#DB0011" d="M37.716,17.285c0,0-0.839,2.297-2.05,4.409l0.87,0.714l-0.715,0.994c0.808,0.714,1.832,2.018,2.329,3.229
				c0.155-0.093,0.373-0.248,0.559-0.342c0.342-0.186,0.621-0.372,0.621-0.372c-0.062-0.125-0.123-0.249-0.186-0.342
				c-0.125-0.217-0.249-0.404-0.373-0.59c0.062-0.062,1.738-1.49,3.664-3.477C42.436,21.508,40.604,19.117,37.716,17.285z"/>
		</g>
		<g>
			<path fill="#DB0011" d="M32.468,21.353l0.311-1.304l0,0c0,0-0.124-0.062-0.311-0.125l0,0c-0.187-0.062-0.466-0.155-0.776-0.279
				c0.031-0.311,0.311-2.826,0.187-5.031c0,0-2.577-0.994-6.831-0.776c0,0,1.211,2.36,2.019,5.248c0,0,0.403-0.062,1.241,0
				c0.031,0.186,0.188,0.931,0.249,1.646C29.984,20.669,31.102,20.887,32.468,21.353z"/>
		</g>
		<path fill="#DB0011" d="M41.504,37.903c-0.03,0.403-0.124,0.839-0.248,1.305c-0.031,0-2.174-0.901-4.192-2.081
			c-1.024,1.336-2.359,2.423-3.913,3.137c0.218,0.342,0.622,0.994,0.622,0.994c0.154-0.125,0.311-0.25,0.465-0.343
			c0.28-0.217,0.467-0.403,0.467-0.403s1.272,1.709,4.067,4.223l0,0c0.124-0.156,0.217-0.311,0.279-0.404l0,0
			c0.125-0.186,0.279-0.402,0.435-0.715c2.329,1.74,4.44,2.92,4.44,2.92c2.392-3.758,2.919-7.267,2.919-7.267
			C44.236,38.742,41.504,37.903,41.504,37.903z"/>
	</g>
	<g>
		<g>
			<g>
				<path d="M19.551,26.724c0.155-0.311,0.311-0.621,0.497-0.931c-0.497-0.249-1.646-0.714-3.199-1.18c0,0-0.466,0.683-0.776,1.242
					c-0.279-0.062-4.595-0.87-8.693-0.59c0,0-0.529,0.994-0.994,2.267c4.937-0.652,8.229-0.435,8.942-0.373l0,0
					c0.125-0.218,0.249-0.435,0.342-0.59c0.155-0.28,0.249-0.435,0.403-0.714C16.197,25.886,17.688,26.135,19.551,26.724z"/>
			</g>
			<path d="M10.328,46.629L10.328,46.629c-0.497-0.529-0.808-0.9-0.808-0.9c2.671-4.037,6.18-7.205,6.49-7.484l-0.28-0.527
				c-0.154-0.311-0.31-0.621-0.31-0.621c1.366-1.118,3.291-2.174,3.943-2.485c-0.124-0.31-0.218-0.651-0.311-0.993
				c-0.373,0.154-1.087,0.435-1.832,0.807c-1.024,0.497-2.36,1.272-2.36,1.272c0.155,0.436,0.312,0.808,0.591,1.398
				c-3.261,2.391-6.429,5.714-7.919,7.732c0.933,1.801,2.112,3.291,2.857,4.162l0.807-1.553l0,0
				C10.607,46.971,10.328,46.629,10.328,46.629z"/>
			<g>
				<path d="M25.388,43.555c-0.093,0-0.217,0-0.31-0.031c-0.155,0-0.249-0.031-0.249-0.031l0,0
					c-0.372-0.031-0.714-0.094-0.714-0.094c-0.031,0.062-0.869,3.852-0.714,8.789c0,0,1.056,0.029,2.111-0.094
					C24.86,47.84,25.295,44.113,25.388,43.555z"/>
				<path d="M23.897,39.89c-0.217,0.591-0.869,2.237-1.148,3.26c0,0,0.775,0.219,1.335,0.279c0.124-0.994,0.59-2.515,0.776-3.074
					C24.519,40.202,24.208,40.044,23.897,39.89z"/>
				<g>
					<path d="M28.307,56.006c0,0-0.589-2.203-1.024-4.098c-0.062,0-0.124,0.029-0.187,0.029c-0.155,0.033-0.527,0.094-0.527,0.094
						c-0.404,0.062-0.839,0.125-1.087,0.125c0,0,0.373,2.762,0.683,4.037c0,0,1.118-0.033,2.143-0.125V56.006z"/>
				</g>
			</g>
			<path d="M31.723,40.791c0.124,0.249,0.436,0.963,0.59,1.305c0,0,0.435-0.188,1.025-0.559c-0.031-0.063-0.466-0.809-0.591-1.088
				C32.375,40.574,32.064,40.698,31.723,40.791z"/>
			<g>
				<path d="M33.307,41.537c0.031,0.061,1.583,2.824,3.788,5.277c0,0,0.59-0.621,1.087-1.334c-2.423-2.453-3.788-4.316-3.975-4.597
					c-0.124,0.124-0.311,0.249-0.466,0.342C33.586,41.35,33.462,41.444,33.307,41.537z"/>
			</g>
			<path d="M37.84,35.978c1.956,0.839,3.695,1.304,3.695,1.304c0.093-0.808,0.093-1.396,0.093-1.396s-2.328-0.467-3.354-0.839
				C38.15,35.357,37.995,35.668,37.84,35.978z"/>
			<g>
				<g>
					<path d="M41.659,34.581c0,0.218,0,0.404,0,0.621s0,0.467,0,0.684c3.012,0.589,5.62,0.652,5.62,0.652
						c0.062-0.56,0.062-1.832,0.062-1.832C47.031,34.706,43.895,34.86,41.659,34.581z"/>
				</g>
			</g>
			<g>
				<g>
					<path d="M43.118,22.253c-1.956,1.832-3.881,3.26-3.974,3.322c0.062,0.124,0.124,0.217,0.186,0.342
						c0.124,0.217,0.249,0.435,0.373,0.652c0,0,2.298-1.304,4.316-2.981C44.051,23.619,43.678,22.999,43.118,22.253z"/>
				</g>
				<g>
					<g>
						<path d="M38.461,27.283c0.124,0.311,0.217,0.652,0.311,0.994c0.187-0.062,0.932-0.373,1.428-0.621
							c0,0-0.217-0.559-0.496-1.087L38.461,27.283z"/>
					</g>
				</g>
			</g>
			<g>
				<path d="M33.523,20.359l-0.373,1.273c0.312,0.155,0.622,0.311,0.933,0.466c0.093-0.186,0.279-0.652,0.496-1.211
					C34.579,20.887,33.989,20.545,33.523,20.359z"/>
			</g>
			<g>
				<g>
					<path d="M32.872,14.863c0.031,2.174-0.436,5.061-0.436,5.03l0,0c0.218,0.062,0.311,0.125,0.311,0.125l0,0
						c0,0,0.715,0.28,0.745,0.311c0.062-0.217,0.652-2.36,0.933-4.875C34.455,15.483,33.617,15.142,32.872,14.863z"/>
				</g>
			</g>
			<g>
				<path d="M25.574,19.272c-0.311,0.062-1.211,0.311-1.211,0.311c-1.677-2.826-3.788-5.062-3.788-5.062
					c-0.993,0.28-1.738,0.559-1.926,0.621c0.249,0.217,3.385,3.167,4.503,4.844l0,0c0.094-0.031,0.279-0.124,0.466-0.187
					c0.342-0.124,0.714-0.248,0.714-0.248c0.528,0.807,0.839,1.428,0.994,1.739c0.311-0.124,0.652-0.217,0.994-0.311
					C26.04,20.297,25.574,19.272,25.574,19.272z"/>
			</g>
		</g>
		<g>
			<path d="M38.74,44.703L38.74,44.703c-0.248,0.373-0.559,0.777-0.559,0.777c0.031,0.031,1.987,1.986,3.912,3.385
				c0,0,0.56-0.652,1.181-1.49c-0.218-0.125-2.174-1.398-4.224-3.107l0,0C38.958,44.393,38.865,44.549,38.74,44.703z"/>
		</g>
	</g>
	<g>
		<g>
			<g>
				<path fill="#00AF6F" d="M62.464,44.424c-0.062-0.744-0.466-1.117-1.242-1.117c-0.59,0-1.18,0.309-1.18,0.961
					c0,0.809,0.714,0.9,1.366,1.057c1.118,0.281,2.795,0.621,2.795,2.113c0,1.832-1.584,2.482-3.198,2.482
					c-1.677,0-2.888-0.65-2.826-2.545h1.614c-0.062,0.807,0.404,1.365,1.243,1.365c0.62,0,1.49-0.188,1.49-0.994
					c0-0.869-1.056-0.932-1.677-1.086c-1.025-0.25-2.453-0.746-2.453-2.051c0-1.707,1.553-2.451,3.074-2.451
					c1.428,0,2.546,0.775,2.546,2.266H62.464z"/>
				<path fill="#00AF6F" d="M68.239,49.082c-0.342,0.465-0.807,0.807-1.583,0.807c-0.528,0-1.521-0.404-1.678-1.148
					c-0.093-0.311-0.093-0.652-0.093-0.809v-3.354h1.553v3.105c0,0.561,0.155,1.182,0.932,1.182c0.497,0,0.9-0.436,0.932-1.182
					v-3.105h1.553v4.225c0,0.311,0.03,0.619,0.062,0.932h-1.553L68.239,49.082z"/>
				<path fill="#00AF6F" d="M72.338,45.168L72.338,45.168c0.312-0.434,0.87-0.744,1.397-0.744c1.585,0,2.423,1.336,2.423,2.734
					c0,1.334-0.714,2.73-2.205,2.73c-0.652,0-1.242-0.279-1.553-0.898h-0.031v2.701h-1.553v-6.119c0-0.342-0.03-0.684-0.062-1.023
					h1.553L72.338,45.168z M73.425,48.865c0.994,0,1.118-0.902,1.118-1.707c0-0.809-0.124-1.711-1.118-1.711
					c-0.838,0-1.117,0.994-1.117,1.711C72.338,47.869,72.618,48.865,73.425,48.865z"/>
				<path fill="#00AF6F" d="M78.146,47.561c0,0.684,0.093,1.305,0.869,1.305c0.528,0,0.808-0.188,0.933-0.684h1.396
					c-0.124,1.273-1.117,1.707-2.328,1.707c-1.77,0-2.484-0.994-2.484-2.73c0-1.553,0.901-2.766,2.484-2.766
					c0.963,0,1.77,0.342,2.204,1.242c0.156,0.279,0.217,0.59,0.249,0.932c0.032,0.311,0.032,0.652,0.032,0.994H78.146z
					 M79.947,46.535c0-0.559-0.156-1.088-0.901-1.088c-0.714,0-0.87,0.529-0.87,1.088H79.947z"/>
				<path fill="#00AF6F" d="M83.579,44.578l0.032,0.934h0.03c0.342-0.809,0.993-1.027,1.739-0.994v1.367h-0.684
					c-0.249,0.029-0.589,0.152-0.746,0.371c-0.154,0.279-0.187,0.59-0.217,0.932v2.576h-1.522v-4.129
					c0-0.217-0.03-0.652-0.061-1.025h1.428V44.578z"/>
				<path fill="#00AF6F" d="M90.224,47.777c-0.03,0.496,0.374,1.088,0.869,1.088c0.56,0,0.933-0.529,0.933-1.119
					c0-0.992-0.963-1.18-1.739-1.148v-1.025c0.746-0.031,1.708-0.125,1.708-1.117c0-0.559-0.311-0.994-0.839-0.994
					c-0.465,0-0.869,0.498-0.839,0.994h-1.551c0.062-1.398,1.117-2.02,2.421-2.02c0.994,0,2.392,0.592,2.392,1.803
					c0,0.992-0.589,1.613-1.365,1.77v0.029c0.869,0.25,1.396,0.809,1.396,1.926c0,1.119-1.303,1.926-2.483,1.926
					c-1.428,0-2.422-0.559-2.422-2.111H90.224z"/>
				<path fill="#00AF6F" d="M96.56,49.889c-1.957,0-2.484-1.986-2.484-3.695c0-1.738,0.527-3.727,2.484-3.727
					c2.019,0,2.545,1.988,2.545,3.727C99.074,47.902,98.578,49.889,96.56,49.889z M96.589,43.492c-0.993,0-0.898,2.516-0.898,2.701
					c0,0.188-0.095,2.672,0.898,2.672c0.995,0,0.901-2.516,0.901-2.672C97.49,46.008,97.584,43.492,96.589,43.492z"/>
				<path fill="#00AF6F" d="M102.056,49.889c-1.957,0-2.484-1.986-2.484-3.695c0-1.738,0.527-3.727,2.484-3.727
					c2.019,0,2.545,1.988,2.545,3.727C104.571,47.902,104.042,49.889,102.056,49.889z M102.087,43.492c-0.993,0-0.9,2.516-0.9,2.701
					c0,0.188-0.093,2.672,0.9,2.672c0.992,0,0.899-2.516,0.899-2.672C102.986,46.008,103.079,43.492,102.087,43.492z"/>
			</g>
		</g>
	</g>
</g>
</svg>
