<?xml version="1.0" encoding="utf-8"?>
<!-- Generator: Adobe Illustrator 16.0.0, SVG Export Plug-In . SVG Version: 6.00 Build 0)  -->
<!DOCTYPE svg PUBLIC "-//W3C//DTD SVG 1.1//EN" "http://www.w3.org/Graphics/SVG/1.1/DTD/svg11.dtd">
<svg version="1.1" id="Layer_1" xmlns="http://www.w3.org/2000/svg" xmlns:xlink="http://www.w3.org/1999/xlink" x="0px" y="0px"
	 width="150px" height="70px" viewBox="0 0 150 70" enable-background="new 0 0 150 70" xml:space="preserve">
<g>
	<g>
		<g>
			<polygon fill="#DB0011" points="145,34.922 137.547,27.501 137.547,42.375 			"/>
			<polygon fill="#DB0011" points="130.094,34.922 137.547,27.501 122.642,27.501 			"/>
			<polygon fill="#DB0011" points="115.188,34.922 122.642,42.375 122.642,27.501 			"/>
			<polygon fill="#DB0011" points="130.094,34.922 122.642,42.375 137.547,42.375 			"/>
		</g>
		<g>
			<g>
				<path fill="#DB0011" d="M112.053,21.229h-6.303h-0.31h-1.088c-1.397,0-1.739,0.994-1.739,0.994l-1.491,3.571h-0.029
					l-0.374-4.596h-2.359c-1.118,0-1.583,1.025-1.583,1.025l-1.77,3.54h-0.032v-4.595h-1.584c-1.056,0-1.271,0.59-1.336,0.9
					c-0.31-0.59-1.148-0.9-2.638-0.9h-3.758c-1.212,0-1.335,0.932-1.335,0.932l-1.367,6.428h5.311c1.553,0,2.049-0.155,2.608-0.559
					c0.373-0.28,0.683-0.745,0.807-1.335c0.249-1.273-0.621-1.77-1.614-1.832v-0.031c0.9-0.217,1.677-0.621,1.986-1.459l0.125,5.186
					h2.546c1.46,0,1.988-1.335,1.988-1.335l1.553-3.105h0.03l0.373,4.472h2.266c1.646,0,2.206-1.459,2.206-1.459l1.987-4.534
					l-1.241,5.993h1.365c1.738,0,1.987-1.428,1.987-1.428l0.279-1.305h1.957c1.488,0,1.707-1.148,1.707-1.148l0.093-0.373h-3.415
					l0.31-1.521h2.143c1.46,0,1.678-1.118,1.678-1.118L112.053,21.229z M86.933,24.179l0.342-1.615h0.899
					c0.963,0,1.118,0.279,0.993,0.807c-0.093,0.497-0.433,0.808-1.334,0.808H86.933z M86.279,27.252l0.373-1.77h0.901
					c1.056,0,1.366,0.279,1.241,0.869c-0.125,0.621-0.559,0.9-1.614,0.9H86.279z"/>
				<g>
					<g>
						<path d="M57.713,25.452h-3.167v3.136h-1.584V21.26h1.584v3.012h3.167V21.26h1.584v7.328h-1.584V25.452z"/>
						<path d="M63.146,28.712c-1.583,0-2.888-0.621-2.919-2.391h1.584c0.031,0.777,0.466,1.243,1.335,1.243
							c0.652,0,1.367-0.311,1.367-1.056c0-0.559-0.498-0.746-1.305-0.993l-0.527-0.156c-1.149-0.342-2.298-0.776-2.298-2.111
							c0-1.646,1.521-2.173,2.918-2.173c1.429,0,2.671,0.497,2.671,2.111h-1.584c-0.062-0.683-0.435-1.055-1.211-1.055
							c-0.59,0-1.18,0.31-1.18,0.962c0,0.528,0.496,0.714,1.521,1.024l0.621,0.187c1.272,0.404,2.049,0.838,2.049,2.049
							C66.189,28.06,64.575,28.712,63.146,28.712z"/>
						<path d="M67.091,21.229h2.546c0.808,0,1.118,0.031,1.429,0.093c0.9,0.217,1.553,0.776,1.553,1.77
							c0,0.931-0.591,1.429-1.46,1.646c0.993,0.186,1.738,0.683,1.738,1.77c0,1.677-1.646,2.049-2.918,2.049h-2.888V21.229z
							 M69.637,24.303c0.714,0,1.396-0.155,1.396-0.994c0-0.745-0.683-0.962-1.304-0.962h-1.117v1.956H69.637z M69.792,27.47
							c0.745,0,1.459-0.186,1.459-1.056s-0.621-1.087-1.366-1.087h-1.272v2.143H69.792z"/>
						<path d="M77.059,28.712c-2.36,0-3.416-1.521-3.416-3.757c0-2.205,1.18-3.851,3.509-3.851c1.459,0,2.888,0.652,2.919,2.298
							h-1.646c-0.093-0.745-0.56-1.118-1.272-1.118c-1.429,0-1.863,1.553-1.863,2.732c0,1.18,0.435,2.516,1.8,2.516
							c0.715,0,1.243-0.373,1.366-1.118h1.646C79.914,28.06,78.579,28.712,77.059,28.712z"/>
					</g>
				</g>
			</g>
			<g>
				<path d="M59.948,31.879h1.801l1.305,5.558h0.031l1.18-5.558h1.521l-1.895,7.39h-1.77l-1.335-5.65h-0.031l-1.428,5.65h-1.802
					l-1.801-7.39h1.646l1.149,5.558h0.031L59.948,31.879z"/>
				<path d="M68.395,39.425c-1.677,0-2.671-1.119-2.671-2.733c0-1.613,0.994-2.732,2.671-2.732s2.671,1.119,2.671,2.732
					C71.096,38.306,70.071,39.425,68.395,39.425z M68.395,38.399c0.932,0,1.087-0.868,1.087-1.707c0-0.837-0.155-1.707-1.087-1.707
					s-1.087,0.87-1.087,1.707C67.308,37.531,67.463,38.399,68.395,38.399z"/>
				<path d="M73.27,34.146l0.031,0.933h0.031c0.342-0.809,0.993-1.025,1.738-0.995v1.367h-0.651c-0.249,0.03-0.59,0.154-0.745,0.372
					c-0.155,0.279-0.187,0.559-0.218,0.901v2.545h-1.521v-4.13c0-0.217-0.031-0.651-0.062-1.023h1.396V34.146z"/>
				<path d="M77.492,31.879v7.39h-1.553v-7.39H77.492z"/>
				<path d="M82.368,31.879h1.521v6.365c0,0.342,0.03,0.684,0.061,1.024h-1.553c-0.029-0.248-0.029-0.496-0.029-0.713h-0.031
					c-0.342,0.59-0.901,0.869-1.584,0.869c-1.522,0-2.205-1.398-2.205-2.733c0-1.397,0.808-2.732,2.422-2.732
					c0.529,0,1.088,0.31,1.367,0.746h0.031V31.879z M81.249,38.399c0.839,0,1.119-0.991,1.119-1.707c0-0.714-0.28-1.707-1.119-1.707
					c-0.993,0-1.117,0.9-1.117,1.707C80.132,37.5,80.286,38.399,81.249,38.399z"/>
				<path d="M86.156,31.879h5.992v1.242h-2.205V39.3H88.36v-6.179h-2.204V31.879z"/>
				<path d="M94.291,39.425c-1.677,0-2.67-1.119-2.67-2.733c0-1.613,0.993-2.732,2.67-2.732c1.678,0,2.671,1.119,2.671,2.732
					C96.962,38.306,95.969,39.425,94.291,39.425z M94.291,38.399c0.932,0,1.088-0.868,1.088-1.707c0-0.837-0.156-1.707-1.088-1.707
					c-0.931,0-1.086,0.87-1.086,1.707C93.205,37.531,93.328,38.399,94.291,38.399z"/>
				<path d="M101.216,38.649c-0.341,0.466-0.807,0.776-1.583,0.776c-0.497,0-1.491-0.404-1.678-1.148
					c-0.093-0.312-0.093-0.652-0.093-0.809v-3.353h1.553v3.073c0,0.559,0.155,1.181,0.932,1.181c0.496,0,0.9-0.436,0.932-1.181
					v-3.073h1.554v4.223c0,0.311,0.029,0.62,0.061,0.931h-1.521L101.216,38.649z"/>
				<path d="M105.408,34.146l0.032,0.933h0.028c0.344-0.809,0.995-1.025,1.739-0.995v1.367h-0.651
					c-0.248,0.03-0.59,0.154-0.744,0.372c-0.155,0.279-0.187,0.559-0.218,0.901v2.545h-1.521v-4.13c0-0.217-0.032-0.651-0.062-1.023
					h1.397V34.146z"/>
			</g>
		</g>
	</g>
	<g>
		<g>
			<path fill="#DB0011" d="M23.152,20.018L23.152,20.018c-0.187,0.062-0.403,0.187-0.684,0.31c-1.241-1.708-4.844-4.75-4.844-4.75
				c-4.409,1.956-6.956,4.844-6.956,4.844c3.727,0.932,7.391,2.702,7.391,2.702c0.403-0.311,0.776-0.622,1.118-0.87
				c0.187,0.125,1.117,0.745,2.329,1.646c0.435-0.497,1.677-1.583,3.229-2.267c-0.031-0.062-0.31-0.652-1.117-1.77
				C23.432,19.893,23.276,19.956,23.152,20.018L23.152,20.018z"/>
		</g>
		<g>
			<path fill="#DB0011" d="M19.364,27.315c-2.143-0.59-3.727-0.745-3.727-0.745c-0.093,0.155-0.218,0.372-0.342,0.589
				c-0.218,0.373-0.465,0.745-0.435,0.745c0,0-3.322-0.217-8.942,0.808c0,0-1.554,4.502-0.621,9.999c0,0,3.943-3.135,8.912-5.154
				c0,0-0.094-0.559-0.062-1.491c2.64-0.745,4.409-0.962,4.596-0.994C18.649,29.985,18.898,28.495,19.364,27.315z"/>
		</g>
		<g>
			<path fill="#DB0011" d="M19.581,35.109c-0.031,0.03-2.267,1.211-3.881,2.639l0.279,0.529c0.124,0.217,0.248,0.434,0.403,0.651
				c-0.435,0.435-3.509,3.416-6.086,7.732c0,0,0.279,0.34,0.839,0.838c0.217,0.186,0.466,0.404,0.745,0.652l-0.808,1.803
				c4.472,4.5,8.633,5.371,8.633,5.371l0.217-3.23c-1.18-0.217-1.926-0.467-1.926-0.467s0.373-3.818,2.64-9.066
				c0,0-0.466-0.154-1.241-0.652c0.03-0.061,1.521-2.545,2.328-3.631C20.823,37.313,20.017,36.195,19.581,35.109z"/>
		</g>
		<g>
			<path fill="#DB0011" d="M35.138,48.771c-0.435,0.342-0.9,0.652-1.365,0.932c-0.062-0.094-1.832-2.949-3.106-6.957
				c0,0-0.403,0.158-1.148,0.344c-0.062-0.25-0.279-1.461-0.373-1.958c-1.086,0.062-2.949-0.279-3.726-0.62
				c-0.031,0.062-0.496,1.769-0.621,2.98l0,0c0,0,0.094,0,0.248,0.031c0.125,0,0.218,0.031,0.312,0.031c0,0,0.403,0.031,0.59,0.031
				c-0.031,0.217-0.373,3.912,0.559,8.414c0,0,0.372-0.062,0.528-0.092c0.062,0,0.124-0.031,0.186-0.031
				c0.404-0.062,0.839-0.156,1.025-0.186c0.559,1.926,1.304,4.16,1.304,4.16c4.596-0.59,8.446-3.447,8.446-3.447
				C36.908,51.287,35.138,48.771,35.138,48.771z"/>
		</g>
		<g>
			<path fill="#DB0011" d="M47.218,33.742c-0.124-3.478-1.46-6.676-1.46-6.676c-3.012,1.397-4.999,1.987-4.999,1.987
				c0.124,0.342,0.248,0.745,0.342,1.148l-1.957,0.342c0.062,0.901-0.154,2.888-0.651,4.005c1.148,0.311,3.198,0.622,3.198,0.622
				c0-0.218,0-0.437,0-0.622c0-0.247,0-0.466-0.031-0.684C43.987,34.083,47.218,33.742,47.218,33.742z"/>
		</g>
		<g>
			<path fill="#DB0011" d="M37.715,17.285c0,0-0.838,2.297-2.049,4.409l0.869,0.714l-0.714,0.994
				c0.808,0.714,1.832,2.018,2.329,3.229c0.155-0.093,0.372-0.248,0.559-0.342c0.342-0.186,0.621-0.372,0.621-0.372
				c-0.062-0.125-0.124-0.249-0.187-0.342c-0.124-0.217-0.248-0.403-0.372-0.59c0.062-0.062,1.738-1.491,3.664-3.478
				C42.436,21.508,40.604,19.117,37.715,17.285z"/>
		</g>
		<g>
			<path fill="#DB0011" d="M32.468,21.353l0.311-1.304l0,0c0,0-0.124-0.062-0.311-0.125l0,0c-0.187-0.062-0.466-0.155-0.776-0.279
				c0.031-0.311,0.311-2.826,0.187-5.031c0,0-2.577-0.994-6.832-0.776c0,0,1.212,2.36,2.02,5.248c0,0,0.403-0.062,1.241,0
				c0.031,0.186,0.187,0.932,0.249,1.646C29.983,20.669,31.102,20.887,32.468,21.353z"/>
		</g>
		<path fill="#DB0011" d="M41.504,37.903c-0.031,0.403-0.125,0.84-0.248,1.305c-0.031,0-2.174-0.901-4.192-2.081
			c-1.024,1.337-2.36,2.423-3.913,3.137c0.218,0.342,0.622,0.994,0.622,0.994c0.154-0.125,0.311-0.25,0.465-0.343
			c0.28-0.217,0.466-0.402,0.466-0.402s1.273,1.708,4.068,4.224l0,0c0.124-0.158,0.217-0.312,0.279-0.404l0,0
			c0.124-0.188,0.279-0.404,0.435-0.717c2.329,1.74,4.44,2.92,4.44,2.92c2.392-3.756,2.919-7.266,2.919-7.266
			C44.236,38.743,41.504,37.903,41.504,37.903z"/>
	</g>
	<g>
		<g>
			<g>
				<path d="M19.55,26.725c0.156-0.311,0.311-0.621,0.498-0.932c-0.498-0.249-1.646-0.714-3.199-1.18c0,0-0.466,0.684-0.776,1.242
					c-0.279-0.062-4.596-0.869-8.694-0.589c0,0-0.528,0.994-0.993,2.267c4.937-0.652,8.229-0.435,8.942-0.373l0,0
					c0.124-0.217,0.249-0.435,0.342-0.589c0.155-0.28,0.248-0.435,0.403-0.715C16.196,25.886,17.687,26.135,19.55,26.725z"/>
			</g>
			<path d="M10.328,46.629L10.328,46.629c-0.497-0.527-0.808-0.9-0.808-0.9c2.671-4.037,6.18-7.205,6.49-7.484l-0.28-0.527
				c-0.154-0.31-0.311-0.621-0.311-0.621c1.367-1.118,3.292-2.174,3.944-2.484c-0.124-0.31-0.218-0.652-0.311-0.993
				c-0.373,0.154-1.087,0.435-1.832,0.807c-1.025,0.497-2.36,1.272-2.36,1.272c0.155,0.436,0.311,0.809,0.59,1.398
				c-3.26,2.391-6.428,5.714-7.918,7.732c0.932,1.801,2.111,3.293,2.857,4.162l0.807-1.553l0,0
				C10.607,46.971,10.328,46.629,10.328,46.629z"/>
			<g>
				<path d="M25.388,43.555c-0.093,0-0.217,0-0.311-0.031c-0.154,0-0.248-0.031-0.248-0.031l0,0
					c-0.372-0.031-0.714-0.094-0.714-0.094c-0.031,0.062-0.87,3.852-0.714,8.789c0,0,1.056,0.029,2.11-0.094
					C24.86,47.84,25.295,44.113,25.388,43.555z"/>
				<path d="M23.897,39.891c-0.218,0.59-0.869,2.236-1.148,3.259c0,0,0.775,0.219,1.335,0.279c0.124-0.992,0.59-2.515,0.776-3.074
					C24.519,40.202,24.208,40.045,23.897,39.891z"/>
				<g>
					<path d="M28.307,56.006c0,0-0.59-2.203-1.024-4.098c-0.062,0-0.124,0.029-0.187,0.029c-0.155,0.033-0.528,0.094-0.528,0.094
						c-0.403,0.062-0.838,0.125-1.087,0.125c0,0,0.373,2.764,0.684,4.037c0,0,1.118-0.033,2.143-0.125V56.006z"/>
				</g>
			</g>
			<path d="M31.723,40.791c0.124,0.249,0.435,0.963,0.59,1.305c0,0,0.435-0.188,1.025-0.559c-0.031-0.063-0.467-0.809-0.591-1.087
				C32.375,40.575,32.064,40.698,31.723,40.791z"/>
			<g>
				<path d="M33.307,41.537c0.031,0.061,1.583,2.824,3.788,5.277c0,0,0.59-0.621,1.087-1.334c-2.423-2.453-3.789-4.316-3.975-4.596
					c-0.124,0.123-0.311,0.248-0.466,0.342C33.585,41.351,33.462,41.444,33.307,41.537z"/>
			</g>
			<path d="M37.84,35.978c1.956,0.839,3.695,1.305,3.695,1.305c0.093-0.809,0.093-1.397,0.093-1.397s-2.328-0.467-3.354-0.839
				C38.15,35.357,37.995,35.668,37.84,35.978z"/>
			<g>
				<g>
					<path d="M41.659,34.581c0,0.219,0,0.404,0,0.621s0,0.467,0,0.684c3.012,0.589,5.62,0.652,5.62,0.652
						c0.062-0.56,0.062-1.832,0.062-1.832C47.031,34.706,43.895,34.86,41.659,34.581z"/>
				</g>
			</g>
			<g>
				<g>
					<path d="M43.118,22.253c-1.956,1.832-3.881,3.261-3.975,3.322c0.062,0.125,0.125,0.217,0.187,0.342
						c0.124,0.217,0.248,0.435,0.373,0.652c0,0,2.298-1.304,4.315-2.981C44.05,23.62,43.678,22.999,43.118,22.253z"/>
				</g>
				<g>
					<g>
						<path d="M38.461,27.284c0.124,0.31,0.217,0.652,0.311,0.994c0.187-0.062,0.932-0.373,1.428-0.621c0,0-0.217-0.559-0.496-1.086
							L38.461,27.284z"/>
					</g>
				</g>
			</g>
			<g>
				<path d="M33.523,20.359l-0.373,1.273c0.312,0.156,0.622,0.312,0.933,0.466c0.093-0.186,0.278-0.652,0.496-1.211
					C34.579,20.887,33.989,20.545,33.523,20.359z"/>
			</g>
			<g>
				<g>
					<path d="M32.871,14.863c0.031,2.174-0.435,5.062-0.435,5.03l0,0c0.218,0.062,0.311,0.125,0.311,0.125l0,0
						c0,0,0.715,0.28,0.745,0.31c0.062-0.217,0.652-2.359,0.932-4.875C34.455,15.484,33.616,15.142,32.871,14.863z"/>
				</g>
			</g>
			<g>
				<path d="M25.574,19.272c-0.311,0.062-1.211,0.311-1.211,0.311c-1.677-2.826-3.788-5.061-3.788-5.061
					c-0.994,0.28-1.739,0.559-1.926,0.621c0.249,0.217,3.385,3.167,4.503,4.845l0,0c0.093-0.031,0.279-0.125,0.466-0.187
					c0.341-0.124,0.714-0.248,0.714-0.248c0.528,0.807,0.839,1.428,0.994,1.739c0.311-0.125,0.652-0.217,0.994-0.311
					C26.04,20.297,25.574,19.272,25.574,19.272z"/>
			</g>
		</g>
		<g>
			<path d="M38.74,44.703L38.74,44.703c-0.248,0.373-0.559,0.777-0.559,0.777c0.031,0.031,1.987,1.986,3.912,3.385
				c0,0,0.56-0.652,1.18-1.49c-0.217-0.125-2.173-1.398-4.223-3.105l0,0C38.958,44.393,38.864,44.549,38.74,44.703z"/>
		</g>
	</g>
	<g>
		<g>
			<g>
				<path fill="#BD6228" d="M62.682,44.424c-0.062-0.744-0.466-1.117-1.243-1.117c-0.589,0-1.18,0.309-1.18,0.963
					c0,0.807,0.714,0.898,1.366,1.055c1.118,0.281,2.795,0.621,2.795,2.113c0,1.832-1.615,2.482-3.198,2.482
					c-1.677,0-2.888-0.65-2.826-2.545h1.615c-0.062,0.807,0.404,1.365,1.242,1.365c0.621,0,1.49-0.188,1.49-0.994
					c0-0.869-1.056-0.932-1.708-1.086c-1.024-0.25-2.453-0.746-2.453-2.049c0-1.707,1.553-2.453,3.074-2.453
					c1.429,0,2.547,0.775,2.547,2.266H62.682z"/>
				<path fill="#BD6228" d="M68.487,49.113c-0.341,0.465-0.808,0.807-1.583,0.807c-0.528,0-1.521-0.404-1.677-1.148
					c-0.094-0.311-0.094-0.65-0.094-0.809v-3.352h1.554v3.105c0,0.559,0.154,1.178,0.931,1.178c0.497,0,0.9-0.434,0.932-1.178
					v-3.105h1.553v4.254c0,0.311,0.031,0.621,0.062,0.93h-1.552L68.487,49.113z"/>
				<path fill="#BD6228" d="M72.556,45.168L72.556,45.168c0.31-0.432,0.869-0.744,1.396-0.744c1.615,0,2.423,1.336,2.423,2.734
					c0,1.334-0.715,2.73-2.205,2.73c-0.652,0-1.242-0.279-1.552-0.898h-0.031v2.701h-1.554v-6.119c0-0.342-0.03-0.684-0.062-1.023
					h1.553L72.556,45.168z M73.674,48.865c0.993,0,1.117-0.902,1.117-1.707c0-0.809-0.124-1.711-1.117-1.711
					c-0.839,0-1.118,0.996-1.118,1.711C72.556,47.871,72.835,48.865,73.674,48.865z"/>
				<path fill="#BD6228" d="M78.394,47.561c0,0.684,0.093,1.305,0.869,1.305c0.528,0,0.808-0.188,0.931-0.684h1.398
					c-0.125,1.273-1.119,1.707-2.329,1.707c-1.771,0-2.484-0.994-2.484-2.73c0-1.553,0.899-2.766,2.484-2.766
					c0.963,0,1.77,0.344,2.204,1.242c0.156,0.279,0.219,0.59,0.249,0.934c0.03,0.309,0.03,0.65,0.03,0.992H78.394z M80.163,46.535
					c0-0.559-0.155-1.088-0.9-1.088c-0.715,0-0.869,0.529-0.869,1.088H80.163z"/>
				<path fill="#BD6228" d="M83.827,44.578l0.03,0.934h0.032c0.342-0.809,0.993-1.025,1.738-0.994v1.367h-0.651
					c-0.25,0.029-0.59,0.154-0.745,0.371c-0.156,0.279-0.188,0.59-0.219,0.932v2.578h-1.521v-4.131c0-0.217-0.03-0.652-0.062-1.023
					h1.397V44.578z"/>
				<path fill="#BD6228" d="M89.511,47.963c0.029,0.498,0.402,0.902,0.898,0.902c0.776,0,1.026-0.902,1.026-1.521
					c0-0.59-0.312-1.273-0.994-1.273c-0.466,0-0.776,0.373-0.901,0.807l-1.489-0.031l0.154-4.191h4.347v1.025h-2.98l-0.093,1.863
					c0.342-0.342,0.809-0.498,1.305-0.498c1.271,0,2.173,0.777,2.173,2.453c0,1.305-1.148,2.455-2.608,2.455
					c-1.241,0-2.329-0.561-2.39-1.928h1.553V47.963z"/>
				<path fill="#BD6228" d="M95.999,49.889c-1.955,0-2.484-1.986-2.484-3.695c0-1.738,0.529-3.727,2.484-3.727
					c2.019,0,2.546,1.988,2.546,3.727C98.515,47.934,97.987,49.889,95.999,49.889z M96.03,43.492c-0.993,0-0.9,2.516-0.9,2.701
					c0,0.188-0.093,2.672,0.9,2.672c0.994,0,0.901-2.516,0.901-2.672C96.932,46.008,97.024,43.492,96.03,43.492z"/>
				<path fill="#BD6228" d="M101.465,49.889c-1.957,0-2.484-1.986-2.484-3.695c0-1.738,0.527-3.727,2.484-3.727
					c2.019,0,2.546,1.988,2.546,3.727C104.011,47.934,103.483,49.889,101.465,49.889z M101.495,43.492
					c-0.993,0-0.899,2.516-0.899,2.701c0,0.188-0.094,2.672,0.899,2.672s0.9-2.516,0.9-2.672
					C102.428,46.008,102.488,43.492,101.495,43.492z"/>
			</g>
		</g>
	</g>
</g>
</svg>
