<?xml version="1.0" encoding="utf-8"?>
<!-- Generator: Adobe Illustrator 26.2.1, SVG Export Plug-In . SVG Version: 6.00 Build 0)  -->
<svg version="1.1" id="Layer_1" xmlns="http://www.w3.org/2000/svg" xmlns:xlink="http://www.w3.org/1999/xlink" x="0px" y="0px"
	 viewBox="0 0 200 200" style="enable-background:new 0 0 200 200;" xml:space="preserve">
<style type="text/css">
	.st0{fill:#FFFFFF;}
	.st1{fill:#A4368D;}
	.st2{fill:#F7B62D;}
	.st3{fill:#CC88B7;}
</style>
<rect class="st0" width="200" height="200"/>
<g>
	<g>
		<g>
			<path class="st1" d="M46.89,82.59l-5.69-1.9l-3.33,4.83l1.71,0.57l-23.79,36.82c2.12-0.33,4.25-0.56,6.38-0.68l20.3-35.18
				l1.71,0.57L46.89,82.59z M47.71,82.87L24.7,122.14c1.91-0.03,3.81,0.02,5.71,0.16l3.66-7.24l1.56,0.52l-3,6.93
				c1.68,0.19,3.35,0.44,5.01,0.77l13.83-39.15L47.71,82.87z M40.11,105.48l-1.31-0.44c2.06-4.07,4.93-9.57,8.18-15.71
				C44.64,94.75,42.31,100.23,40.11,105.48z M43.51,124.74L56,85.64l-2.6-0.87L38.73,123.5C40.33,123.85,41.93,124.26,43.51,124.74z
				 M61.2,96.07c0.36-2.05,0.58-3.49,0.66-4.4c0.08-0.88,0.07-1.64-0.02-2.27c-0.09-0.62-0.3-1.14-0.63-1.55
				c-0.32-0.41-0.84-0.73-1.55-0.97l-2.62-0.88l-11.66,39.35c1.57,0.53,3.1,1.12,4.61,1.77l4.63-19.31l0.99,0.33
				c0.8,0.27,1.53,0.1,2.18-0.51c0.63-0.59,1.16-1.54,1.58-2.81c0.4-1.22,0.83-3.14,1.28-5.64L61.2,96.07z M57.47,99.82
				c-0.22,0.42-0.48,0.58-0.78,0.48c-0.07-0.02-0.15-0.06-0.24-0.11l2.09-8.7c0.37,0.12,0.58,0.36,0.62,0.71
				c0.05,0.35-0.05,1.06-0.29,2.15l-0.62,2.8C57.95,98.5,57.69,99.4,57.47,99.82z M62.28,122.99l1.43-13.06l2.27,0.76l0.67-8.58
				l-2.01-0.67l0.74-6.72l1.93,0.64l0.44-5.8l-4.34-1.45l-6.83,42.31c2.79,1.63,5.46,3.47,7.99,5.51l0.86-11.9L62.28,122.99z
				 M71.26,90.74l-2.6-0.87l-2.74,47.19c1.68,1.43,3.31,2.96,4.87,4.57L71.26,90.74z"/>
			<path class="st1" d="M70.88,88.56c-0.13,0-0.25-0.02-0.38-0.06l-26.96-8.76c-0.65-0.21-1-0.91-0.79-1.55s0.91-1,1.55-0.79
				l26.96,8.76c0.65,0.21,1,0.91,0.79,1.55C71.88,88.23,71.4,88.56,70.88,88.56z"/>
			<path class="st1" d="M46.03,74.31c1.45-7.65,9.14-12.8,17.1-10.22c7.96,2.58,11.17,11.26,7.87,18.31l0.82,0.26
				c0.46-0.64,0.89-1.33,1.27-2.07c4.19-8.18,0.85-18.53-8.3-21.49c-9.15-2.96-17.93,3.47-19.32,12.55
				c-0.13,0.82-0.18,1.63-0.19,2.42L46.03,74.31z"/>
		</g>
		<g>
			<g>
				<path class="st1" d="M101.4,95.28c1.21,0,2.27-0.2,3.18-0.6c0.91-0.4,1.63-0.97,2.16-1.71c0.53-0.74,0.85-1.56,0.95-2.45
					c0.1-0.9,0.15-2.42,0.15-4.57v-3.67c0-2.21-0.05-3.75-0.16-4.63c-0.11-0.88-0.44-1.7-0.99-2.45c-0.56-0.75-1.29-1.31-2.2-1.69
					c-0.91-0.37-1.94-0.56-3.09-0.56c-1.21,0-2.27,0.2-3.18,0.6c-0.91,0.4-1.63,0.97-2.16,1.71c-0.53,0.74-0.85,1.56-0.95,2.45
					c-0.1,0.9-0.15,2.42-0.15,4.57v3.67c0,2.21,0.05,3.75,0.16,4.63c0.11,0.88,0.44,1.7,0.99,2.45c0.56,0.75,1.29,1.31,2.2,1.69
					C99.22,95.09,100.25,95.28,101.4,95.28z M100.53,78.91c0-1.1,0.08-1.77,0.23-1.99c0.15-0.22,0.38-0.34,0.67-0.34
					c0.34,0,0.57,0.14,0.68,0.42c0.11,0.28,0.17,0.92,0.17,1.91v9.84c0,1.26-0.05,2.06-0.16,2.39c-0.11,0.34-0.35,0.5-0.73,0.5
					c-0.37,0-0.61-0.15-0.71-0.44c-0.1-0.29-0.15-1.06-0.15-2.3V78.91z"/>
				<path class="st1" d="M84.94,94.83h5.16v-7.75l4.06-13.67h-5.12c-0.73,3.34-1.24,6.16-1.55,8.44c-0.1-1.45-0.55-4.26-1.35-8.44
					h-5.12l3.92,13.67V94.83z"/>
				<path class="st1" d="M140.17,94.83l0.52-3.49c0.25-1.52,0.45-2.95,0.59-4.31c0.51,3.07,1.08,5.67,1.69,7.81h5.16l-2.95-11.95
					l1.96-9.47h-4.67l-1.19,5.85c-0.15-0.88-0.34-1.85-0.57-2.9c-0.29-1.38-0.48-2.36-0.58-2.95h-5.39l2.02,9.47l-2.02,11.95H140.17
					z"/>
				<polygon class="st1" points="114.58,85.09 117.48,94.83 122.36,94.83 122.36,73.41 117.7,73.41 117.7,83.06 114.58,73.41 
					109.92,73.41 109.92,94.83 114.58,94.83 				"/>
				<polygon class="st1" points="130.16,85.83 133.64,85.83 133.64,81.76 130.16,81.76 130.16,77.7 133.88,77.7 133.88,73.41 
					124.59,73.41 124.59,94.83 134.25,94.83 134.25,90.54 130.16,90.54 				"/>
			</g>
			<path class="st1" d="M92.69,100.77l-2.38,17.94h4.82l0.28-3.22h1.67l0.25,3.22h4.77l-2.67-17.94H92.69z M95.36,112.3
				c0.12-1.59,0.42-4.1,0.9-7.53c0.24,2.99,0.47,5.5,0.71,7.53H95.36z"/>
			<polygon class="st1" points="88.45,118.7 88.45,104.36 91.22,104.36 91.22,100.77 81.02,100.77 81.02,104.36 83.78,104.36 
				83.78,118.7 			"/>
			<path class="st1" d="M119.39,101.93c-0.34-0.38-0.86-0.66-1.54-0.86c-0.68-0.2-1.66-0.3-2.93-0.3h-4.7v17.94h4.66v-7.22h1.25
				c1.02,0,1.84-0.14,2.48-0.42c0.63-0.28,1.07-0.68,1.3-1.21c0.24-0.52,0.35-1.36,0.35-2.5v-1.56c0-1.12-0.06-1.95-0.18-2.49
				C119.96,102.76,119.73,102.31,119.39,101.93z M116.37,106.78c0,0.66-0.08,1.1-0.25,1.31c-0.17,0.21-0.46,0.32-0.89,0.32
				c-0.1,0-0.21,0-0.34-0.01v-4.56c0.61,0,1,0.09,1.2,0.28c0.19,0.18,0.29,0.58,0.29,1.2V106.78z"/>
			<polygon class="st1" points="126.27,111.17 129.18,111.17 129.18,107.76 126.27,107.76 126.27,104.36 129.38,104.36 
				129.38,100.77 121.61,100.77 121.61,118.7 129.69,118.7 129.69,115.11 126.27,115.11 			"/>
			<rect x="131.03" y="100.77" class="st1" width="4.66" height="17.94"/>
			<path class="st2" d="M107.85,117.81l-0.01-0.09l-0.21-2l-0.01-0.09l-0.15-1.38l-0.01-0.05l-0.02-0.18l-0.01-0.05l-0.01-0.13
				h-0.15l0.09-0.43l0.01-0.05l0.03-0.12l0.01-0.05l0.03-0.12l0.01-0.05l0.03-0.12l0-0.01l0.13-0.62h0v-0.05h-0.34l0.09-0.43
				l0.01-0.05l0.03-0.12l0.01-0.05l0.03-0.12l0.01-0.05l0.03-0.12l0-0.01l0.13-0.62h0v-0.05h-0.34l0.09-0.43l0.01-0.05l0.03-0.12
				l0.01-0.05l0.03-0.12l0.01-0.05l0.03-0.12l0-0.01l0.13-0.62h0v-0.05h-0.34l0.09-0.43l0.01-0.05l0.03-0.12l0.01-0.05l0.03-0.12
				l0.01-0.05l0.03-0.12l0-0.01l0.13-0.62h0v-0.05h-0.34l0.09-0.43l0.01-0.05l0.03-0.12l0.01-0.05l0.03-0.12l0.01-0.05l0.03-0.12
				l0-0.01l0.13-0.62h0v-0.05h-0.34l0.09-0.43l0.01-0.05l0.03-0.12l0.01-0.05l0.03-0.12l0.01-0.05l0.03-0.12l0-0.01l0.13-0.62h0
				v-0.05h-0.34l0.09-0.43l0.01-0.05l0.03-0.12l0.01-0.05l0.03-0.12l0.01-0.05l0.03-0.12l0-0.01l0.13-0.62h0v-0.05h-0.34l0.09-0.43
				l0.01-0.05l0.03-0.12l0.01-0.05l0.03-0.12l0.01-0.05l0.03-0.12l0-0.01l0.13-0.62l0,0v-0.05h-0.7v-0.37h-0.22v-0.1h-0.1v-0.14
				h-0.32l0,0h0l0.01-0.07l0.01-0.05l0.01-0.08l0.01-0.05l0.01-0.08l0.01-0.05l0.01-0.08l0.01-0.05l0.01-0.08l0.01-0.05l0.01-0.08
				l0.01-0.05l0.01-0.08l0.01-0.05l0.01-0.08l0.01-0.05l0.01-0.08l0.01-0.05l0.01-0.08l0.01-0.05l0.01-0.08l0.01-0.05l0.01-0.08
				l0.01-0.09l0.01-0.08l0.01-0.09l0.01-0.09l0.01-0.09h-0.37v-0.53h0.07v-0.23h-0.38v-1.14v-0.04v-0.05v-0.04v-0.05v-0.04v-0.05
				V95.9v-0.05v-0.04v-0.05v-0.04v-0.05v-0.04v-0.05v-0.04V95.4c0-0.06-0.05-0.12-0.11-0.12c-0.06,0-0.12,0.05-0.12,0.12v0.15v0.04
				v0.05v0.04v0.05v0.04v0.05v0.04v0.05v0.04v0.05v0.04v0.05v0.04v0.05v0.04v1.14h-0.38v0.23h0.07v0.53h-0.37l0.01,0.09l0.01,0.09
				l0.01,0.09l0.01,0.08l0.01,0.09l0.01,0.08l0.01,0.05l0.01,0.08l0.01,0.05l0.01,0.08l0.01,0.05l0.01,0.08l0.01,0.05l0.01,0.08
				l0.01,0.05l0.01,0.08l0.01,0.05l0.01,0.08l0.01,0.05l0.01,0.08l0.01,0.05l0.01,0.08l0.01,0.05l0.01,0.08l0.01,0.05l0.01,0.08
				l0.01,0.05l0.01,0.07l0,0h-0.32v0.14h-0.1v0.1h-0.22v0.37h-0.7v0.05l0,0l0.13,0.62l0,0.01l0.03,0.12l0.01,0.05l0.03,0.12
				l0.01,0.05l0.03,0.12l0.01,0.05l0.09,0.43h-0.34v0.05h0l0.13,0.62l0,0.01l0.03,0.12l0.01,0.05l0.03,0.12l0.01,0.05l0.03,0.12
				l0.01,0.05l0.09,0.43h-0.34v0.05h0l0.13,0.62l0,0.01l0.03,0.12l0.01,0.05l0.03,0.12l0.01,0.05l0.03,0.12l0.01,0.05l0.09,0.43
				h-0.34v0.05h0l0.13,0.62l0,0.01l0.03,0.12l0.01,0.05l0.03,0.12l0.01,0.05l0.03,0.12l0.01,0.05l0.09,0.43h-0.34v0.05h0l0.13,0.62
				l0,0.01l0.03,0.12l0.01,0.05l0.03,0.12l0.01,0.05l0.03,0.12l0.01,0.05l0.09,0.43h-0.34v0.05h0l0.13,0.62l0,0.01l0.03,0.12
				l0.01,0.05l0.03,0.12l0.01,0.05l0.03,0.12l0.01,0.05l0.09,0.43h-0.34v0.05h0l0.13,0.62l0,0.01l0.03,0.12l0.01,0.05l0.03,0.12
				l0.01,0.05l0.03,0.12l0.01,0.05l0.09,0.43h-0.34v0.05h0l0.13,0.62l0,0.01l0.03,0.12l0.01,0.05l0.03,0.12l0.01,0.05l0.03,0.12
				l0.01,0.05l0.09,0.43h-0.15l-0.01,0.13l-0.01,0.05l-0.02,0.18l-0.01,0.05l-0.15,1.38l-0.01,0.09l-0.21,2l-0.01,0.09l-0.02,0.23
				l-0.07,0.66h1.66h0.61h0h0.6h1.66l-0.07-0.66L107.85,117.81z"/>
			<path class="st1" d="M151.44,111.05c0,1.79-0.04,3.06-0.13,3.8c-0.08,0.74-0.35,1.43-0.79,2.04c-0.44,0.62-1.04,1.09-1.8,1.42
				c-0.76,0.33-1.64,0.5-2.64,0.5c-0.95,0-1.81-0.16-2.57-0.47c-0.76-0.31-1.37-0.78-1.83-1.4c-0.46-0.62-0.74-1.3-0.83-2.04
				c-0.09-0.73-0.13-2.02-0.13-3.85V108c0-1.79,0.04-3.06,0.13-3.8c0.08-0.74,0.35-1.43,0.79-2.04c0.44-0.62,1.04-1.09,1.8-1.42
				c0.76-0.33,1.64-0.5,2.64-0.5c0.95,0,1.81,0.16,2.57,0.47c0.76,0.31,1.37,0.78,1.83,1.4c0.46,0.62,0.74,1.3,0.83,2.04
				c0.09,0.73,0.13,2.02,0.13,3.85V111.05z M146.81,105.2c0-0.83-0.05-1.36-0.14-1.59c-0.09-0.23-0.28-0.35-0.57-0.35
				c-0.24,0-0.43,0.09-0.56,0.28c-0.13,0.19-0.19,0.74-0.19,1.66v8.32c0,1.04,0.04,1.67,0.13,1.92c0.08,0.24,0.28,0.36,0.59,0.36
				c0.32,0,0.52-0.14,0.61-0.42c0.09-0.28,0.13-0.94,0.13-1.99V105.2z"/>
			<path class="st1" d="M153.17,100.62h4.67c1.26,0,2.23,0.1,2.91,0.3c0.68,0.2,1.19,0.48,1.53,0.86c0.34,0.37,0.57,0.83,0.69,1.36
				c0.12,0.53,0.18,1.36,0.18,2.47v1.55c0,1.14-0.12,1.97-0.35,2.49c-0.24,0.52-0.67,0.92-1.29,1.2c-0.63,0.28-1.45,0.42-2.46,0.42
				h-1.24v7.18h-4.64V100.62z M157.81,103.67v4.54c0.13,0.01,0.25,0.01,0.34,0.01c0.43,0,0.72-0.1,0.89-0.31
				c0.17-0.21,0.25-0.64,0.25-1.3v-1.46c0-0.61-0.1-1.01-0.29-1.19C158.81,103.76,158.41,103.67,157.81,103.67z"/>
			<path class="st1" d="M164.49,100.62h7.73v3.57h-3.09v3.38h2.9v3.39h-2.9v3.92h3.4v3.57h-8.04V100.62z"/>
			<path class="st1" d="M184.21,100.62v17.83h-4.06l-2.41-8.1v8.1h-3.88v-17.83h3.88l2.6,8.03v-8.03H184.21z"/>
		</g>
	</g>
	<g>
		<path class="st1" d="M92.26,137.06v3h-9.68l0-2.52c2.87-4.69,4.57-7.59,5.11-8.7c0.54-1.11,0.81-1.98,0.81-2.61
			c0-0.48-0.08-0.84-0.25-1.07c-0.16-0.24-0.41-0.35-0.75-0.35c-0.33,0-0.58,0.13-0.75,0.39c-0.16,0.26-0.25,0.78-0.25,1.56v1.68
			h-3.94v-0.64c0-0.99,0.05-1.77,0.15-2.34c0.1-0.57,0.35-1.13,0.75-1.68c0.4-0.55,0.92-0.97,1.56-1.25c0.64-0.28,1.4-0.42,2.3-0.42
			c1.75,0,3.07,0.43,3.97,1.3c0.9,0.87,1.34,1.97,1.34,3.29c0,1.01-0.25,2.08-0.76,3.2c-0.5,1.13-1.99,3.51-4.46,7.16H92.26z"/>
		<path class="st1" d="M104.34,128.41v5.88c0,1.34-0.07,2.31-0.22,2.92c-0.15,0.61-0.45,1.18-0.9,1.71
			c-0.46,0.53-1.01,0.91-1.65,1.14c-0.65,0.23-1.37,0.35-2.17,0.35c-1.05,0-1.93-0.12-2.62-0.36c-0.7-0.24-1.25-0.62-1.67-1.14
			c-0.41-0.52-0.71-1.06-0.88-1.63c-0.17-0.57-0.26-1.48-0.26-2.72v-6.15c0-1.62,0.14-2.83,0.42-3.64c0.28-0.81,0.83-1.45,1.67-1.94
			c0.83-0.49,1.84-0.73,3.02-0.73c0.97,0,1.83,0.17,2.59,0.51c0.76,0.34,1.33,0.75,1.71,1.24c0.38,0.49,0.63,1.03,0.77,1.64
			C104.27,126.1,104.34,127.07,104.34,128.41z M99.94,126.93c0-0.94-0.05-1.52-0.14-1.76c-0.09-0.24-0.3-0.35-0.64-0.35
			c-0.33,0-0.54,0.13-0.65,0.38c-0.11,0.25-0.16,0.83-0.16,1.74v8.6c0,1.02,0.05,1.64,0.15,1.85c0.1,0.21,0.31,0.32,0.64,0.32
			c0.33,0,0.54-0.12,0.64-0.37c0.1-0.25,0.15-0.8,0.15-1.67V126.93z"/>
		<path class="st1" d="M115.4,137.06v3h-9.68l0-2.52c2.87-4.69,4.57-7.59,5.11-8.7c0.54-1.11,0.81-1.98,0.81-2.61
			c0-0.48-0.08-0.84-0.25-1.07c-0.16-0.24-0.41-0.35-0.75-0.35c-0.33,0-0.58,0.13-0.75,0.39c-0.16,0.26-0.25,0.78-0.25,1.56v1.68
			h-3.94v-0.64c0-0.99,0.05-1.77,0.15-2.34c0.1-0.57,0.35-1.13,0.75-1.68c0.4-0.55,0.92-0.97,1.56-1.25c0.64-0.28,1.4-0.42,2.3-0.42
			c1.75,0,3.07,0.43,3.97,1.3c0.9,0.87,1.34,1.97,1.34,3.29c0,1.01-0.25,2.08-0.76,3.2c-0.5,1.13-1.99,3.51-4.46,7.16H115.4z"/>
		<path class="st1" d="M126.6,137.06v3h-9.68l0-2.52c2.87-4.69,4.57-7.59,5.11-8.7c0.54-1.11,0.81-1.98,0.81-2.61
			c0-0.48-0.08-0.84-0.25-1.07c-0.16-0.24-0.41-0.35-0.75-0.35c-0.33,0-0.58,0.13-0.75,0.39c-0.16,0.26-0.25,0.78-0.25,1.56v1.68
			h-3.94v-0.64c0-0.99,0.05-1.77,0.15-2.34c0.1-0.57,0.35-1.13,0.75-1.68c0.4-0.55,0.92-0.97,1.56-1.25c0.64-0.28,1.4-0.42,2.3-0.42
			c1.75,0,3.07,0.43,3.97,1.3c0.9,0.87,1.34,1.97,1.34,3.29c0,1.01-0.25,2.08-0.76,3.2c-0.5,1.13-1.99,3.51-4.46,7.16H126.6z"/>
	</g>
	<g>
		<path class="st3" d="M133.04,122.39v7.79h-1.94v-4.18c0-0.6-0.01-0.97-0.04-1.09c-0.03-0.12-0.11-0.21-0.24-0.28
			c-0.13-0.06-0.42-0.09-0.87-0.09h-0.19v-0.91c0.94-0.2,1.65-0.62,2.14-1.25H133.04z"/>
		<path class="st3" d="M133.79,128.12h1.94c0,0.36,0,0.59,0.01,0.69c0.01,0.09,0.05,0.17,0.12,0.24c0.07,0.06,0.16,0.1,0.28,0.1
			c0.1,0,0.18-0.03,0.25-0.09c0.06-0.06,0.1-0.14,0.11-0.24c0.01-0.1,0.01-0.29,0.01-0.58v-1.24c-0.1,0.21-0.24,0.36-0.43,0.47
			c-0.19,0.1-0.43,0.16-0.72,0.16c-0.36,0-0.67-0.1-0.94-0.29c-0.27-0.19-0.45-0.42-0.52-0.69c-0.07-0.27-0.11-0.63-0.11-1.09v-0.62
			c0-0.55,0.02-0.95,0.06-1.22c0.04-0.27,0.15-0.51,0.33-0.74c0.18-0.23,0.43-0.4,0.75-0.53c0.32-0.13,0.69-0.19,1.11-0.19
			c0.52,0,0.95,0.07,1.28,0.22c0.33,0.14,0.59,0.35,0.77,0.62s0.29,0.56,0.32,0.85c0.03,0.3,0.04,0.88,0.04,1.73v1.08
			c0,0.93-0.01,1.55-0.04,1.86c-0.03,0.31-0.14,0.61-0.33,0.89c-0.2,0.28-0.46,0.49-0.8,0.63c-0.34,0.14-0.73,0.21-1.17,0.21
			c-0.55,0-1-0.09-1.35-0.26c-0.35-0.18-0.6-0.43-0.75-0.75C133.87,129.01,133.79,128.61,133.79,128.12z M135.74,125.69
			c0,0.33,0.04,0.53,0.13,0.61c0.08,0.08,0.17,0.12,0.26,0.12c0.13,0,0.23-0.05,0.3-0.15c0.06-0.1,0.09-0.29,0.09-0.58v-1.41
			c0-0.34-0.03-0.57-0.09-0.67c-0.06-0.11-0.16-0.16-0.3-0.16c-0.08,0-0.17,0.04-0.26,0.12c-0.09,0.08-0.13,0.3-0.13,0.66V125.69z"
			/>
		<path class="st3" d="M141.51,126.32v1.34h-2.56v-1.34H141.51z"/>
		<path class="st3" d="M146.23,128.86v1.33h-4.28l0-1.11c1.27-2.07,2.02-3.36,2.26-3.85c0.24-0.49,0.36-0.88,0.36-1.15
			c0-0.21-0.04-0.37-0.11-0.47c-0.07-0.1-0.18-0.16-0.33-0.16c-0.15,0-0.26,0.06-0.33,0.17c-0.07,0.12-0.11,0.34-0.11,0.69v0.74
			h-1.74v-0.28c0-0.44,0.02-0.78,0.07-1.03c0.04-0.25,0.16-0.5,0.33-0.74c0.18-0.24,0.41-0.43,0.69-0.55
			c0.28-0.13,0.62-0.19,1.02-0.19c0.77,0,1.36,0.19,1.75,0.58c0.4,0.38,0.59,0.87,0.59,1.46c0,0.45-0.11,0.92-0.33,1.42
			c-0.22,0.5-0.88,1.55-1.97,3.17H146.23z"/>
		<path class="st3" d="M150.75,122.39v5.09h0.55v1.33h-0.55v1.37h-1.94v-1.37h-2.31v-1.33l1.68-5.09H150.75z M148.81,127.49v-3.32
			l-0.86,3.32H148.81z"/>
		<path class="st3" d="M132.25,132.38V137c0,0.69-0.01,1.14-0.02,1.34c-0.01,0.2-0.08,0.38-0.2,0.54c-0.12,0.16-0.27,0.27-0.47,0.33
			c-0.2,0.06-0.5,0.09-0.89,0.09h-0.9v-1.21c0.11,0.01,0.19,0.01,0.24,0.01c0.13,0,0.23-0.03,0.3-0.09
			c0.07-0.06,0.12-0.14,0.13-0.23c0.01-0.09,0.02-0.27,0.02-0.53v-4.87H132.25z"/>
		<path class="st3" d="M137.04,132.38V137c0,0.52-0.02,0.89-0.05,1.1c-0.03,0.21-0.14,0.43-0.3,0.65c-0.17,0.22-0.39,0.39-0.66,0.51
			c-0.27,0.12-0.6,0.17-0.97,0.17c-0.41,0-0.78-0.07-1.09-0.21c-0.32-0.14-0.55-0.31-0.71-0.53c-0.16-0.22-0.25-0.45-0.28-0.69
			c-0.03-0.24-0.04-0.76-0.04-1.54v-4.09h1.8v5.19c0,0.3,0.02,0.5,0.05,0.58c0.03,0.08,0.1,0.13,0.2,0.13
			c0.11,0,0.19-0.05,0.22-0.14c0.03-0.09,0.05-0.31,0.05-0.66v-5.1H137.04z"/>
		<path class="st3" d="M139.53,132.38v5.53h1.09v1.38h-2.89v-6.92H139.53z"/>
		<path class="st3" d="M144.33,132.38l-1.31,4.41v2.5h-1.67v-2.5l-1.26-4.41h1.65c0.26,1.35,0.4,2.26,0.44,2.73
			c0.1-0.74,0.27-1.65,0.5-2.73H144.33z"/>
	</g>
</g>
</svg>
